<svg xmlns="http://www.w3.org/2000/svg" xmlns:xlink="http://www.w3.org/1999/xlink" width="1920" zoomAndPan="magnify" viewBox="0 0 1440 682.499979" height="910" preserveAspectRatio="xMidYMid meet" version="1.0"><defs><g/></defs><g fill="#ff8904" fill-opacity="1"><g transform="translate(116.105348, 453.963916)"><g><path d="M 17.328125 0 L 17.328125 -391.796875 L 136.828125 -391.796875 L 169.671875 -152.796875 L 202.515625 -391.796875 L 322.921875 -391.796875 L 322.921875 0 L 251.3125 0 L 251.3125 -282.328125 L 206.15625 0 L 135.921875 0 L 88.03125 -282.328125 L 88.03125 0 Z M 17.328125 0 "/></g></g></g><g fill="#ff8904" fill-opacity="1"><g transform="translate(423.026441, 453.963916)"><g><path d="M 17.328125 0 L 17.328125 -391.796875 L 174.234375 -391.796875 L 174.234375 -316.078125 L 97.15625 -316.078125 L 97.15625 -239.90625 L 171.046875 -239.90625 L 171.046875 -166.03125 L 97.15625 -166.03125 L 97.15625 -76.171875 L 179.25 -76.171875 L 179.25 0 Z M 17.328125 0 "/></g></g></g><g fill="#ff8904" fill-opacity="1"><g transform="translate(577.624926, 453.963916)"><g><path d="M 17.328125 0 L 17.328125 -391.796875 L 98.0625 -391.796875 L 134.09375 -204.34375 L 134.09375 -391.796875 L 209.8125 -391.796875 L 209.8125 0 L 133.1875 0 L 93.953125 -196.125 L 93.953125 0 Z M 17.328125 0 "/></g></g></g><g fill="#ff8904" fill-opacity="1"><g transform="translate(771.444182, 453.963916)"><g><path d="M 51.078125 0 L 51.078125 -316.546875 L 4.5625 -316.546875 L 4.5625 -391.796875 L 176.0625 -391.796875 L 176.0625 -316.546875 L 129.53125 -316.546875 L 129.53125 0 Z M 51.078125 0 "/></g></g></g><g fill="#ff8904" fill-opacity="1"><g transform="translate(918.745812, 453.963916)"><g><path d="M 110.828125 3.65625 C 79.210938 3.65625 55.191406 -6 38.765625 -25.3125 C 22.347656 -44.625 14.140625 -71.765625 14.140625 -106.734375 L 14.140625 -293.28125 C 14.140625 -327.03125 22.347656 -352.492188 38.765625 -369.671875 C 55.191406 -386.859375 79.210938 -395.453125 110.828125 -395.453125 C 142.453125 -395.453125 166.472656 -386.859375 182.890625 -369.671875 C 199.316406 -352.492188 207.53125 -327.03125 207.53125 -293.28125 L 207.53125 -106.734375 C 207.53125 -71.460938 199.316406 -44.242188 182.890625 -25.078125 C 166.472656 -5.921875 142.453125 3.65625 110.828125 3.65625 Z M 110.828125 -68.421875 C 117.828125 -68.421875 122.539062 -71.457031 124.96875 -77.53125 C 127.40625 -83.613281 128.625 -92.128906 128.625 -103.078125 L 128.625 -294.640625 C 128.625 -303.160156 127.484375 -310.078125 125.203125 -315.390625 C 122.921875 -320.710938 118.285156 -323.375 111.296875 -323.375 C 98.210938 -323.375 91.671875 -313.492188 91.671875 -293.734375 L 91.671875 -102.625 C 91.671875 -91.375 93.039062 -82.859375 95.78125 -77.078125 C 98.519531 -71.304688 103.535156 -68.421875 110.828125 -68.421875 Z M 110.828125 -68.421875 "/></g></g></g><g fill="#ff8904" fill-opacity="1"><g transform="translate(1107.092409, 453.963916)"><g><path d="M 17.328125 -391.796875 L 137.75 -391.796875 C 156.90625 -391.796875 171.726562 -387.460938 182.21875 -378.796875 C 192.707031 -370.128906 199.773438 -357.96875 203.421875 -342.3125 C 207.066406 -326.65625 208.890625 -306.660156 208.890625 -282.328125 C 208.890625 -260.128906 206 -242.796875 200.21875 -230.328125 C 194.445312 -217.867188 184.414062 -209.207031 170.125 -204.34375 C 181.988281 -201.90625 190.578125 -195.972656 195.890625 -186.546875 C 201.210938 -177.117188 203.875 -164.347656 203.875 -148.234375 L 202.96875 0 L 126.34375 0 L 126.34375 -153.25 C 126.34375 -164.195312 124.210938 -171.191406 119.953125 -174.234375 C 115.703125 -177.273438 107.945312 -178.796875 96.6875 -178.796875 L 96.6875 0 L 17.328125 0 Z M 115.859375 -246.75 C 126.796875 -246.75 132.265625 -258.609375 132.265625 -282.328125 C 132.265625 -292.671875 131.804688 -300.425781 130.890625 -305.59375 C 129.984375 -310.757812 128.3125 -314.332031 125.875 -316.3125 C 123.445312 -318.289062 119.953125 -319.28125 115.390625 -319.28125 L 97.15625 -319.28125 L 97.15625 -246.75 Z M 115.859375 -246.75 "/></g></g></g><g fill="#ff8904" fill-opacity="1"><g transform="translate(401.52389, 628.849847)"><g><path d="M 10.3125 -118.359375 L 26.375 -118.359375 L 26.375 -13.1875 L 95.203125 -13.1875 L 95.203125 0 L 10.3125 0 Z M 10.3125 -118.359375 "/></g></g></g><g fill="#ff8904" fill-opacity="1"><g transform="translate(599.350059, 628.849847)"><g><path d="M 10.3125 -118.359375 L 26.375 -118.359375 L 26.375 0 L 10.3125 0 Z M 10.3125 -118.359375 "/></g></g></g><g fill="#ff8904" fill-opacity="1"><g transform="translate(737.333707, 628.849847)"><g><path d="M 10.484375 -118.359375 L 25.875 -118.359375 L 91.984375 -26.546875 L 91.984375 -118.359375 L 107.875 -118.359375 L 107.875 0 L 92.5 0 L 26.375 -91.8125 L 26.375 0 L 10.484375 0 Z M 10.484375 -118.359375 "/></g></g></g><g fill="#ff8904" fill-opacity="1"><g transform="translate(956.45974, 628.849847)"><g><path d="M 10.140625 -118.359375 L 26.203125 -118.359375 L 26.203125 -65.78125 L 63.078125 -65.78125 L 93.671875 -118.359375 L 111.609375 -118.359375 L 77.109375 -59.1875 L 111.609375 0 L 93.671875 0 L 63.078125 -52.59375 L 26.203125 -52.59375 L 26.203125 0 L 10.140625 0 Z M 10.140625 -118.359375 "/></g></g></g></svg>